<?xml version="1.0" encoding="utf-8"?>
<svg version="1.1" id="Layer_1" xmlns="http://www.w3.org/2000/svg" xmlns:xlink="http://www.w3.org/1999/xlink" x="0px" y="0px"
	 width="36px" height="36px" viewBox="0 0 1000 1000" style="enable-background:new 0 0 1000 1000;" xml:space="preserve">

<style type="text/css">
	.st0{fill:#F04D4D;}
	.st1{fill:#0E7C7B;}
	.st2{fill:#4B3B47;}
	.st3{fill:#70C1B3;}
	.st4{fill:#FEE065;}
</style>
<g id="bg">
	<polygon class="st0" points="921.9,254.1 923.8,745.8 498.9,993.3 72.1,749.2 70.2,257.4 495.1,9.9 	"/>
</g>
<g id="_x31_-2">
	<path class="st1" d="M348.3,326.4l164.2,48.3l1.7,1.5l164.2,48.3c28,7.2,43.5,38.2,34.7,68.2c-8.8,30-38.7,47.6-66.7,39.4
		l-164.2-48.3l-1.7-0.5L316.4,435c-28-8.2-43.5-39.2-34.7-69.2C290.5,335.8,320.3,318.1,348.3,326.4z"/>
</g>
<g id="_x33_-4">
	<path class="st1" d="M348.3,492.5l164.2,48.3l1.7,1.5l164.2,48.3c28,7.2,43.5,38.2,34.7,68.2s-38.7,47.6-66.7,39.4L482.3,650
		l-1.7-0.5l-164.2-48.3c-28-8.2-43.5-39.2-34.7-69.2C290.5,502,320.3,484.3,348.3,492.5z"/>
</g>
<g id="l">
	<rect x="401" y="417.5" class="st2" width="17" height="389"/>
</g>
<g id="r">
	<rect x="590" y="339" class="st2" width="17" height="467.5"/>
</g>
<g id="_x33_">
	<path class="st3" d="M292.5,660.6c-2.3,26.1-1.6,46.6,0.6,57.6c0.9,4.5,2.1,8.9,2.1,8.9c2.3,8.7,5,15.9,7.2,21.2L239,760.6
		l-0.1-0.1c13.3,12.7,32.9,19,53,15.1l188.5-36.7l2-0.4l188.5-36.7c32.1-6.3,53.3-36.2,47.3-66.9s-36.9-50.5-69-44.2l-188.5,36.7
		l-2,0.4l-166.3,32.4"/>
</g>
<g id="_x33__1_">
	<g>
		<g>
			<g>
				<path class="st4" d="M478.8,624.6c0.8,38.2,8.4,76.1,22.3,111.7c1.3,3.4,15.6-1.1,14.5-3.9c-13.9-35.6-21.4-73.5-22.3-111.7
					C493.2,618.3,478.7,620.5,478.8,624.6L478.8,624.6z"/>
			</g>
		</g>
		<g>
			<g>
				<path class="st4" d="M365.8,645.7c-2.3,22.3-3.2,44.5,2.4,66.4c4.1,16.1,10.9,31.4,19.8,45.4c2.5,3.9,16-1.5,14.5-3.9
					c-8.6-13.5-15.2-28.2-19.3-43.7c-5.9-21.9-5.3-44.2-3-66.6C380.6,639.1,366.2,641.9,365.8,645.7L365.8,645.7z"/>
			</g>
		</g>
		<g>
			<g>
				<path class="st4" d="M591.8,602.7c20.8,32.6,29,72.3,22.4,110.4c-0.6,3.2,13.7,0.9,14.3-2.6c6.7-38.6-1-78.6-22.2-111.7
					C604.1,595.3,590.7,600.9,591.8,602.7L591.8,602.7z"/>
			</g>
		</g>
	</g>
</g>
<g id="_x32_">
	<path class="st3" d="M655.5,424.1l-168,32.7l-1.7,0.3l-168,32.7c-28.6,5.6-47,35-41,65.7c6,30.7,34,51.1,62.7,45.5l168-32.7
		l1.7-0.3l168-32.7c28.6-5.6,47-35,41-65.7S684.1,418.5,655.5,424.1z"/>
</g>
<g id="_x32__1_">
	<g>
		<g>
			<g>
				<path class="st4" d="M478.8,459c0.8,38.2,8.4,76.1,22.3,111.7c1.3,3.4,15.6-1.1,14.5-3.9c-13.9-35.6-21.4-73.5-22.3-111.7
					C493.2,452.7,478.7,454.9,478.8,459L478.8,459z"/>
			</g>
		</g>
		<g>
			<g>
				<path class="st4" d="M365.8,480.1c-2.3,22.3-3.2,44.5,2.4,66.4c4.1,16.1,10.9,31.4,19.8,45.4c2.5,3.9,16-1.5,14.5-3.9
					c-8.6-13.5-15.2-28.2-19.3-43.7c-5.9-21.9-5.3-44.2-3-66.6C380.6,473.5,366.2,476.3,365.8,480.1L365.8,480.1z"/>
			</g>
		</g>
		<g>
			<g>
				<path class="st4" d="M591.8,437.1c20.8,32.6,29,72.3,22.4,110.4c-0.6,3.2,13.7,0.9,14.3-2.6c6.7-38.6-1-78.6-22.2-111.7
					C604.1,429.7,590.7,435.3,591.8,437.1L591.8,437.1z"/>
			</g>
		</g>
	</g>
</g>
<g id="_x31_">
	<path class="st3" d="M655.5,258.7l-168,32.7l-1.7,0.3l-168,32.7c-28.6,5.6-47,35-41,65.7s34,51.1,62.7,45.5l168-32.7l1.7-0.3
		l168-32.7c28.6-5.6,47-35,41-65.7S684.1,253.1,655.5,258.7z"/>
</g>
<g id="_x31__1_">
	<g>
		<g>
			<g>
				<path class="st4" d="M478.4,293.3c0.8,38.2,8.4,76.1,22.3,111.7c1.3,3.4,15.6-1.1,14.5-3.9c-13.9-35.6-21.4-73.5-22.3-111.7
					C492.8,287.1,478.3,289.3,478.4,293.3L478.4,293.3z"/>
			</g>
		</g>
		<g>
			<g>
				<path class="st4" d="M365.4,314.5c-2.3,22.3-3.2,44.5,2.4,66.4c4.1,16.1,10.9,31.4,19.8,45.4c2.5,3.9,16-1.5,14.5-3.9
					c-8.6-13.5-15.2-28.2-19.3-43.7c-5.9-21.9-5.3-44.2-3-66.6C380.2,307.9,365.8,310.7,365.4,314.5L365.4,314.5z"/>
			</g>
		</g>
		<g>
			<g>
				<path class="st4" d="M591.4,271.5c20.8,32.6,29,72.3,22.4,110.4c-0.6,3.2,13.7,0.9,14.3-2.6c6.7-38.6-1-78.6-22.2-111.7
					C603.7,264.1,590.3,269.7,591.4,271.5L591.4,271.5z"/>
			</g>
		</g>
	</g>
</g>
</svg>
